<svg width="280" height="180" viewBox="0 0 280 180" fill="none" xmlns="http://www.w3.org/2000/svg">
<mask id="path-1-inside-1_23_7" fill="white">
<path d="M0 16C0 7.16344 7.16344 0 16 0H264C272.837 0 280 7.16344 280 16V164C280 172.837 272.837 180 264 180H16C7.16344 180 0 172.837 0 164V16Z"/>
</mask>
<path d="M0 16C0 7.16344 7.16344 0 16 0H264C272.837 0 280 7.16344 280 16V164C280 172.837 272.837 180 264 180H16C7.16344 180 0 172.837 0 164V16Z" fill="#18181B" fill-opacity="0.5"/>
<path d="M16 0V0.8H264V0V-0.8H16V0ZM280 16H279.2V164H280H280.8V16H280ZM264 180V179.2H16V180V180.8H264V180ZM0 164H0.8V16H0H-0.8V164H0ZM16 180V179.2C7.60527 179.2 0.8 172.395 0.8 164H0H-0.8C-0.8 173.278 6.72162 180.8 16 180.8V180ZM280 164H279.2C279.2 172.395 272.395 179.2 264 179.2V180V180.8C273.278 180.8 280.8 173.278 280.8 164H280ZM264 0V0.8C272.395 0.8 279.2 7.60527 279.2 16H280H280.8C280.8 6.72162 273.278 -0.8 264 -0.8V0ZM16 0V-0.8C6.72162 -0.8 -0.8 6.72162 -0.8 16H0H0.8C0.8 7.60527 7.60527 0.8 16 0.8V0Z" fill="#27272A" mask="url(#path-1-inside-1_23_7)"/>
<path d="M39.8 28.55H27.8C26.9716 28.55 26.3 29.2216 26.3 30.05V37.55C26.3 38.3784 26.9716 39.05 27.8 39.05H39.8C40.6284 39.05 41.3 38.3784 41.3 37.55V30.05C41.3 29.2216 40.6284 28.55 39.8 28.55Z" stroke="#71717B" stroke-width="1.125" stroke-linecap="round" stroke-linejoin="round"/>
<path d="M26.3 32.3H41.3" stroke="#71717B" stroke-width="1.125" stroke-linecap="round" stroke-linejoin="round"/>
<path d="M51.8568 29.0727H53.1182L56.0841 36.317H56.1864L59.1523 29.0727H60.4136V37.8H59.425V31.1693H59.3398L56.6125 37.8H55.6579L52.9307 31.1693H52.8454V37.8H51.8568V29.0727ZM63.7326 37.8V29.0727H68.9996V30.0102H64.7894V32.9591H68.7269V33.8966H64.7894V36.8625H69.0678V37.8H63.7326ZM72.1045 29.0727H73.3658L76.3317 36.317H76.434L79.3999 29.0727H80.6613V37.8H79.6726V31.1693H79.5874L76.8601 37.8H75.9056L73.1783 31.1693H73.0931V37.8H72.1045V29.0727ZM83.9802 37.8V29.0727H87.0314C87.6393 29.0727 88.1408 29.1778 88.5356 29.3881C88.9305 29.5955 89.2246 29.8753 89.4177 30.2276C89.6109 30.577 89.7075 30.9648 89.7075 31.3909C89.7075 31.7659 89.6408 32.0756 89.5072 32.3199C89.3765 32.5642 89.2033 32.7574 88.9873 32.8994C88.7743 33.0415 88.5427 33.1466 88.2927 33.2148V33.3C88.5598 33.317 88.8283 33.4108 89.0981 33.5813C89.368 33.7517 89.5939 33.996 89.7757 34.3142C89.9575 34.6324 90.0484 35.0216 90.0484 35.4818C90.0484 35.9193 89.949 36.3128 89.7501 36.6622C89.5513 37.0117 89.2373 37.2886 88.8084 37.4932C88.3794 37.6977 87.8212 37.8 87.1337 37.8H83.9802ZM85.0371 36.8625H87.1337C87.824 36.8625 88.314 36.729 88.6038 36.4619C88.8964 36.192 89.0427 35.8653 89.0427 35.4818C89.0427 35.1864 88.9675 34.9136 88.8169 34.6636C88.6663 34.4108 88.4518 34.2091 88.1734 34.0585C87.895 33.9051 87.5655 33.8284 87.1848 33.8284H85.0371V36.8625ZM85.0371 32.908H86.9973C87.3155 32.908 87.6024 32.8455 87.8581 32.7205C88.1166 32.5955 88.3212 32.4193 88.4717 32.192C88.6251 31.9648 88.7018 31.6977 88.7018 31.3909C88.7018 31.0074 88.5683 30.6821 88.3013 30.4151C88.0342 30.1452 87.6109 30.0102 87.0314 30.0102H85.0371V32.908ZM92.9849 37.8V29.0727H98.252V30.0102H94.0417V32.9591H97.9792V33.8966H94.0417V36.8625H98.3202V37.8H92.9849ZM101.357 37.8V29.0727H104.306C104.987 29.0727 105.547 29.1892 105.985 29.4222C106.422 29.6523 106.746 29.969 106.956 30.3724C107.166 30.7759 107.272 31.2347 107.272 31.7489C107.272 32.2631 107.166 32.719 106.956 33.1168C106.746 33.5145 106.424 33.827 105.989 34.0543C105.554 34.2787 104.999 34.3909 104.323 34.3909H101.936V33.4364H104.289C104.755 33.4364 105.13 33.3682 105.414 33.2318C105.701 33.0955 105.908 32.9023 106.036 32.6523C106.166 32.3994 106.232 32.0983 106.232 31.7489C106.232 31.3994 106.166 31.094 106.036 30.8327C105.905 30.5713 105.696 30.3696 105.409 30.2276C105.122 30.0827 104.743 30.0102 104.272 30.0102H102.414V37.8H101.357ZM105.465 33.8795L107.612 37.8H106.385L104.272 33.8795H105.465Z" fill="#71717B"/>
<path d="M247.2 28.8C247.2 26.5909 248.991 24.8 251.2 24.8C253.409 24.8 255.2 26.5909 255.2 28.8C255.2 31.0091 253.409 32.8 251.2 32.8C248.991 32.8 247.2 31.0091 247.2 28.8Z" fill="#FE9A00"/>
<path d="M32.8795 113.2H31.8227C31.7602 112.896 31.6508 112.629 31.4946 112.399C31.3412 112.169 31.1537 111.976 30.9321 111.819C30.7133 111.66 30.4705 111.541 30.2034 111.461C29.9364 111.382 29.658 111.342 29.3682 111.342C28.8398 111.342 28.3611 111.476 27.9321 111.743C27.506 112.01 27.1665 112.403 26.9136 112.923C26.6636 113.443 26.5386 114.081 26.5386 114.836C26.5386 115.592 26.6636 116.23 26.9136 116.75C27.1665 117.27 27.506 117.663 27.9321 117.93C28.3611 118.197 28.8398 118.331 29.3682 118.331C29.658 118.331 29.9364 118.291 30.2034 118.211C30.4705 118.132 30.7133 118.014 30.9321 117.858C31.1537 117.699 31.3412 117.504 31.4946 117.274C31.6508 117.041 31.7602 116.774 31.8227 116.473H32.8795C32.8 116.919 32.6551 117.318 32.4449 117.67C32.2347 118.022 31.9733 118.322 31.6608 118.569C31.3483 118.814 30.9974 119 30.6082 119.128C30.2219 119.255 29.8085 119.319 29.3682 119.319C28.6239 119.319 27.9619 119.137 27.3824 118.774C26.8028 118.41 26.3469 117.893 26.0145 117.223C25.6821 116.552 25.5159 115.757 25.5159 114.836C25.5159 113.916 25.6821 113.12 26.0145 112.45C26.3469 111.78 26.8028 111.262 27.3824 110.899C27.9619 110.535 28.6239 110.353 29.3682 110.353C29.8085 110.353 30.2219 110.417 30.6082 110.545C30.9974 110.673 31.3483 110.861 31.6608 111.108C31.9733 111.352 32.2347 111.65 32.4449 112.003C32.6551 112.352 32.8 112.751 32.8795 113.2ZM34.4509 119.2V112.655H35.4566V119.2H34.4509ZM34.9623 111.564C34.7663 111.564 34.5972 111.497 34.4552 111.363C34.316 111.23 34.2464 111.069 34.2464 110.882C34.2464 110.694 34.316 110.534 34.4552 110.4C34.5972 110.267 34.7663 110.2 34.9623 110.2C35.1583 110.2 35.3259 110.267 35.4651 110.4C35.6072 110.534 35.6782 110.694 35.6782 110.882C35.6782 111.069 35.6072 111.23 35.4651 111.363C35.3259 111.497 35.1583 111.564 34.9623 111.564ZM38.3043 115.262V119.2H37.2986V112.655H38.2702V113.677H38.3554C38.5088 113.345 38.7418 113.078 39.0543 112.876C39.3668 112.672 39.7702 112.569 40.2645 112.569C40.7077 112.569 41.0955 112.66 41.4278 112.842C41.7602 113.021 42.0187 113.294 42.2034 113.66C42.3881 114.024 42.4804 114.484 42.4804 115.041V119.2H41.4747V115.109C41.4747 114.595 41.3412 114.194 41.0741 113.907C40.8071 113.618 40.4406 113.473 39.9747 113.473C39.6537 113.473 39.3668 113.542 39.1139 113.682C38.8639 113.821 38.6665 114.024 38.5216 114.291C38.3767 114.558 38.3043 114.882 38.3043 115.262ZM47.0624 119.336C46.4317 119.336 45.8877 119.197 45.4303 118.919C44.9758 118.637 44.6249 118.245 44.3778 117.743C44.1334 117.237 44.0113 116.649 44.0113 115.978C44.0113 115.308 44.1334 114.717 44.3778 114.206C44.6249 113.691 44.9687 113.291 45.409 113.004C45.8522 112.714 46.3692 112.569 46.9602 112.569C47.3011 112.569 47.6377 112.626 47.9701 112.74C48.3025 112.853 48.605 113.038 48.8778 113.294C49.1505 113.547 49.3678 113.882 49.5298 114.299C49.6917 114.717 49.7727 115.231 49.7727 115.842V116.268H44.7272V115.399H48.7499C48.7499 115.03 48.6761 114.7 48.5283 114.41C48.3834 114.12 48.1761 113.892 47.9062 113.724C47.6391 113.557 47.3238 113.473 46.9602 113.473C46.5596 113.473 46.213 113.572 45.9204 113.771C45.6306 113.967 45.4076 114.223 45.2513 114.538C45.0951 114.853 45.017 115.191 45.017 115.552V116.132C45.017 116.626 45.1022 117.045 45.2727 117.389C45.4459 117.73 45.686 117.99 45.9928 118.169C46.2996 118.345 46.6562 118.433 47.0624 118.433C47.3266 118.433 47.5653 118.396 47.7783 118.322C47.9942 118.245 48.1803 118.132 48.3366 117.981C48.4928 117.828 48.6136 117.637 48.6988 117.41L49.6704 117.683C49.5681 118.012 49.3962 118.302 49.1548 118.552C48.9133 118.799 48.615 118.993 48.2599 119.132C47.9048 119.268 47.5056 119.336 47.0624 119.336ZM51.3025 121.655V112.655H52.2741V113.694H52.3934C52.4673 113.581 52.5695 113.436 52.7002 113.26C52.8337 113.081 53.0241 112.922 53.2712 112.782C53.5212 112.64 53.8593 112.569 54.2854 112.569C54.8366 112.569 55.3224 112.707 55.7428 112.983C56.1633 113.258 56.4914 113.649 56.7272 114.155C56.963 114.66 57.0809 115.257 57.0809 115.944C57.0809 116.637 56.963 117.238 56.7272 117.747C56.4914 118.253 56.1647 118.645 55.7471 118.923C55.3295 119.199 54.8479 119.336 54.3025 119.336C53.882 119.336 53.5454 119.267 53.2925 119.128C53.0397 118.986 52.8451 118.825 52.7087 118.646C52.5724 118.464 52.4673 118.314 52.3934 118.194H52.3082V121.655H51.3025ZM52.2911 115.927C52.2911 116.422 52.3636 116.858 52.5084 117.236C52.6533 117.611 52.865 117.905 53.1434 118.118C53.4218 118.328 53.7627 118.433 54.1661 118.433C54.5866 118.433 54.9374 118.322 55.2187 118.101C55.5028 117.876 55.7158 117.575 55.8579 117.197C56.0028 116.816 56.0752 116.393 56.0752 115.927C56.0752 115.467 56.0042 115.052 55.8621 114.683C55.7229 114.311 55.5113 114.017 55.2272 113.801C54.9459 113.582 54.5923 113.473 54.1661 113.473C53.757 113.473 53.4133 113.576 53.1349 113.784C52.8565 113.988 52.6462 114.275 52.5042 114.645C52.3621 115.011 52.2911 115.439 52.2911 115.927ZM59.6207 115.262V119.2H58.615V110.473H59.6207V113.677H59.7059C59.8593 113.339 60.0894 113.071 60.3962 112.872C60.7059 112.67 61.1178 112.569 61.632 112.569C62.078 112.569 62.4687 112.659 62.8039 112.838C63.1391 113.014 63.3991 113.285 63.5837 113.652C63.7712 114.015 63.865 114.478 63.865 115.041V119.2H62.8593V115.109C62.8593 114.589 62.7244 114.187 62.4545 113.903C62.1874 113.616 61.8167 113.473 61.3423 113.473C61.0127 113.473 60.7173 113.542 60.4559 113.682C60.1974 113.821 59.9928 114.024 59.8423 114.291C59.6945 114.558 59.6207 114.882 59.6207 115.262ZM65.7048 119.2V112.655H66.7105V119.2H65.7048ZM66.2162 111.564C66.0202 111.564 65.8511 111.497 65.7091 111.363C65.5699 111.23 65.5003 111.069 65.5003 110.882C65.5003 110.694 65.5699 110.534 65.7091 110.4C65.8511 110.267 66.0202 110.2 66.2162 110.2C66.4122 110.2 66.5798 110.267 66.719 110.4C66.8611 110.534 66.9321 110.694 66.9321 110.882C66.9321 111.069 66.8611 111.23 66.719 111.363C66.5798 111.497 66.4122 111.564 66.2162 111.564ZM69.5582 110.473V119.2H68.5525V110.473H69.5582ZM74.1445 119.336C73.5138 119.336 72.9697 119.197 72.5124 118.919C72.0578 118.637 71.707 118.245 71.4598 117.743C71.2155 117.237 71.0933 116.649 71.0933 115.978C71.0933 115.308 71.2155 114.717 71.4598 114.206C71.707 113.691 72.0507 113.291 72.491 113.004C72.9342 112.714 73.4513 112.569 74.0422 112.569C74.3831 112.569 74.7197 112.626 75.0521 112.74C75.3845 112.853 75.6871 113.038 75.9598 113.294C76.2325 113.547 76.4499 113.882 76.6118 114.299C76.7737 114.717 76.8547 115.231 76.8547 115.842V116.268H71.8092V115.399H75.832C75.832 115.03 75.7581 114.7 75.6104 114.41C75.4655 114.12 75.2581 113.892 74.9882 113.724C74.7212 113.557 74.4058 113.473 74.0422 113.473C73.6416 113.473 73.295 113.572 73.0024 113.771C72.7126 113.967 72.4896 114.223 72.3334 114.538C72.1771 114.853 72.099 115.191 72.099 115.552V116.132C72.099 116.626 72.1842 117.045 72.3547 117.389C72.528 117.73 72.768 117.99 73.0749 118.169C73.3817 118.345 73.7382 118.433 74.1445 118.433C74.4087 118.433 74.6473 118.396 74.8604 118.322C75.0763 118.245 75.2624 118.132 75.4186 117.981C75.5749 117.828 75.6956 117.637 75.7808 117.41L76.7524 117.683C76.6501 118.012 76.4783 118.302 76.2368 118.552C75.9953 118.799 75.697 118.993 75.3419 119.132C74.9868 119.268 74.5876 119.336 74.1445 119.336ZM81.6061 119.2V118.433L86.3106 111.41H81.555V110.473H87.572V111.24L82.8675 118.262H87.6231V119.2H81.6061ZM91.9186 119.336C91.3277 119.336 90.8092 119.196 90.3632 118.914C89.92 118.633 89.5734 118.24 89.3234 117.734C89.0763 117.228 88.9527 116.637 88.9527 115.961C88.9527 115.28 89.0763 114.684 89.3234 114.176C89.5734 113.667 89.92 113.272 90.3632 112.991C90.8092 112.71 91.3277 112.569 91.9186 112.569C92.5095 112.569 93.0266 112.71 93.4697 112.991C93.9158 113.272 94.2624 113.667 94.5095 114.176C94.7595 114.684 94.8845 115.28 94.8845 115.961C94.8845 116.637 94.7595 117.228 94.5095 117.734C94.2624 118.24 93.9158 118.633 93.4697 118.914C93.0266 119.196 92.5095 119.336 91.9186 119.336ZM91.9186 118.433C92.3675 118.433 92.7368 118.318 93.0266 118.088C93.3163 117.858 93.5308 117.555 93.67 117.18C93.8092 116.805 93.8788 116.399 93.8788 115.961C93.8788 115.524 93.8092 115.116 93.67 114.738C93.5308 114.361 93.3163 114.055 93.0266 113.822C92.7368 113.589 92.3675 113.473 91.9186 113.473C91.4697 113.473 91.1004 113.589 90.8106 113.822C90.5209 114.055 90.3064 114.361 90.1672 114.738C90.028 115.116 89.9584 115.524 89.9584 115.961C89.9584 116.399 90.028 116.805 90.1672 117.18C90.3064 117.555 90.5209 117.858 90.8106 118.088C91.1004 118.318 91.4697 118.433 91.9186 118.433ZM97.4254 115.262V119.2H96.4197V112.655H97.3913V113.677H97.4765C97.6299 113.345 97.8629 113.078 98.1754 112.876C98.4879 112.672 98.8913 112.569 99.3856 112.569C99.8288 112.569 100.217 112.66 100.549 112.842C100.881 113.021 101.14 113.294 101.324 113.66C101.509 114.024 101.601 114.484 101.601 115.041V119.2H100.596V115.109C100.596 114.595 100.462 114.194 100.195 113.907C99.9282 113.618 99.5617 113.473 99.0958 113.473C98.7748 113.473 98.4879 113.542 98.235 113.682C97.985 113.821 97.7876 114.024 97.6427 114.291C97.4978 114.558 97.4254 114.882 97.4254 115.262ZM106.184 119.336C105.553 119.336 105.009 119.197 104.551 118.919C104.097 118.637 103.746 118.245 103.499 117.743C103.255 117.237 103.132 116.649 103.132 115.978C103.132 115.308 103.255 114.717 103.499 114.206C103.746 113.691 104.09 113.291 104.53 113.004C104.973 112.714 105.49 112.569 106.081 112.569C106.422 112.569 106.759 112.626 107.091 112.74C107.424 112.853 107.726 113.038 107.999 113.294C108.272 113.547 108.489 113.882 108.651 114.299C108.813 114.717 108.894 115.231 108.894 115.842V116.268H103.848V115.399H107.871C107.871 115.03 107.797 114.7 107.649 114.41C107.505 114.12 107.297 113.892 107.027 113.724C106.76 113.557 106.445 113.473 106.081 113.473C105.681 113.473 105.334 113.572 105.041 113.771C104.752 113.967 104.529 114.223 104.372 114.538C104.216 114.853 104.138 115.191 104.138 115.552V116.132C104.138 116.626 104.223 117.045 104.394 117.389C104.567 117.73 104.807 117.99 105.114 118.169C105.421 118.345 105.777 118.433 106.184 118.433C106.448 118.433 106.686 118.396 106.899 118.322C107.115 118.245 107.301 118.132 107.458 117.981C107.614 117.828 107.735 117.637 107.82 117.41L108.791 117.683C108.689 118.012 108.517 118.302 108.276 118.552C108.034 118.799 107.736 118.993 107.381 119.132C107.026 119.268 106.627 119.336 106.184 119.336Z" fill="#71717B"/>
<path d="M27.6693 133.655L31.7176 145.501H31.881L35.9293 133.655H38.3014L33.067 148.2H30.5315L25.2972 133.655H27.6693ZM42.0965 133.655V148.2H39.9019V133.655H42.0965ZM44.7925 148.2V133.655H49.9772C51.1088 133.655 52.0463 133.861 52.7897 134.272C53.5331 134.684 54.0894 135.248 54.4587 135.963C54.8281 136.673 55.0127 137.473 55.0127 138.363C55.0127 139.258 54.8257 140.063 54.4516 140.778C54.0823 141.488 53.5236 142.052 52.7755 142.468C52.0321 142.88 51.097 143.086 49.9701 143.086H46.4048V141.226H49.7712C50.4862 141.226 51.0662 141.102 51.5113 140.856C51.9564 140.605 52.2831 140.264 52.4914 139.834C52.6997 139.403 52.8039 138.913 52.8039 138.363C52.8039 137.814 52.6997 137.326 52.4914 136.9C52.2831 136.474 51.954 136.14 51.5042 135.899C51.0591 135.657 50.472 135.537 49.7428 135.537H46.9871V148.2H44.7925ZM63.1072 148.2H60.7776L66.012 133.655H68.5475L73.7819 148.2H71.4523L67.3401 136.297H67.2265L63.1072 148.2ZM63.4978 142.504H71.0546V144.351H63.4978V142.504ZM79.6313 148.42C78.5755 148.42 77.6664 148.181 76.9041 147.703C76.1465 147.22 75.5641 146.555 75.1569 145.707C74.7497 144.86 74.5461 143.889 74.5461 142.795C74.5461 141.687 74.7544 140.709 75.1711 139.862C75.5878 139.01 76.1749 138.344 76.9325 137.866C77.69 137.388 78.5826 137.149 79.61 137.149C80.4386 137.149 81.1773 137.303 81.8259 137.611C82.4746 137.914 82.9978 138.34 83.3955 138.889C83.798 139.438 84.0371 140.08 84.1129 140.814H82.0461C81.9325 140.302 81.672 139.862 81.2648 139.493C80.8624 139.123 80.3226 138.939 79.6455 138.939C79.0537 138.939 78.5352 139.095 78.0901 139.407C77.6498 139.715 77.3065 140.155 77.0603 140.728C76.8141 141.297 76.691 141.969 76.691 142.745C76.691 143.541 76.8117 144.227 77.0532 144.805C77.2947 145.383 77.6356 145.83 78.0759 146.147C78.521 146.465 79.0442 146.623 79.6455 146.623C80.048 146.623 80.4126 146.55 80.7393 146.403C81.0707 146.252 81.3477 146.036 81.5702 145.757C81.7975 145.477 81.9561 145.141 82.0461 144.748H84.1129C84.0371 145.454 83.8075 146.084 83.4239 146.637C83.0404 147.191 82.5267 147.627 81.8827 147.944C81.2435 148.262 80.4931 148.42 79.6313 148.42ZM90.479 148.42C89.4231 148.42 88.514 148.181 87.7517 147.703C86.9941 147.22 86.4117 146.555 86.0045 145.707C85.5974 144.86 85.3938 143.889 85.3938 142.795C85.3938 141.687 85.6021 140.709 86.0188 139.862C86.4354 139.01 87.0225 138.344 87.7801 137.866C88.5377 137.388 89.4302 137.149 90.4577 137.149C91.2863 137.149 92.0249 137.303 92.6736 137.611C93.3223 137.914 93.8455 138.34 94.2432 138.889C94.6456 139.438 94.8848 140.08 94.9605 140.814H92.8938C92.7801 140.302 92.5197 139.862 92.1125 139.493C91.71 139.123 91.1703 138.939 90.4932 138.939C89.9013 138.939 89.3829 139.095 88.9378 139.407C88.4974 139.715 88.1542 140.155 87.908 140.728C87.6617 141.297 87.5386 141.969 87.5386 142.745C87.5386 143.541 87.6594 144.227 87.9009 144.805C88.1423 145.383 88.4832 145.83 88.9236 146.147C89.3687 146.465 89.8919 146.623 90.4932 146.623C90.8956 146.623 91.2602 146.55 91.5869 146.403C91.9184 146.252 92.1954 146.036 92.4179 145.757C92.6452 145.477 92.8038 145.141 92.8938 144.748H94.9605C94.8848 145.454 94.6551 146.084 94.2716 146.637C93.8881 147.191 93.3743 147.627 92.7304 147.944C92.0912 148.262 91.3407 148.42 90.479 148.42ZM101.433 148.42C100.358 148.42 99.4327 148.191 98.6562 147.731C97.8844 147.267 97.2878 146.616 96.8664 145.778C96.4497 144.935 96.2414 143.948 96.2414 142.816C96.2414 141.699 96.4497 140.714 96.8664 139.862C97.2878 139.01 97.8749 138.344 98.6278 137.866C99.3853 137.388 100.271 137.149 101.284 137.149C101.9 137.149 102.496 137.251 103.074 137.454C103.651 137.658 104.17 137.977 104.629 138.413C105.088 138.849 105.451 139.414 105.716 140.111C105.981 140.802 106.114 141.642 106.114 142.632V143.385H97.4417V141.794H104.033C104.033 141.235 103.919 140.74 103.692 140.309C103.464 139.874 103.145 139.53 102.733 139.28C102.326 139.029 101.847 138.903 101.298 138.903C100.702 138.903 100.181 139.05 99.7357 139.343C99.2954 139.632 98.9545 140.011 98.713 140.48C98.4763 140.944 98.3579 141.448 98.3579 141.993V143.236C98.3579 143.965 98.4857 144.585 98.7414 145.096C99.0018 145.608 99.364 145.998 99.8281 146.268C100.292 146.533 100.834 146.666 101.454 146.666C101.857 146.666 102.224 146.609 102.555 146.495C102.887 146.377 103.173 146.202 103.415 145.97C103.656 145.738 103.841 145.451 103.969 145.111L105.979 145.473C105.818 146.065 105.529 146.583 105.112 147.028C104.7 147.468 104.182 147.812 103.557 148.058C102.936 148.299 102.229 148.42 101.433 148.42ZM116.144 139.954L114.22 140.295C114.139 140.049 114.011 139.815 113.836 139.592C113.666 139.37 113.434 139.187 113.14 139.045C112.847 138.903 112.48 138.832 112.039 138.832C111.438 138.832 110.936 138.967 110.534 139.237C110.131 139.502 109.93 139.845 109.93 140.267C109.93 140.631 110.065 140.925 110.335 141.147C110.605 141.37 111.04 141.552 111.642 141.694L113.375 142.092C114.378 142.324 115.126 142.682 115.619 143.164C116.111 143.647 116.358 144.275 116.358 145.047C116.358 145.7 116.168 146.282 115.789 146.794C115.415 147.3 114.892 147.698 114.22 147.987C113.552 148.276 112.778 148.42 111.897 148.42C110.676 148.42 109.679 148.16 108.907 147.639C108.135 147.113 107.662 146.368 107.487 145.402L109.539 145.089C109.667 145.624 109.93 146.029 110.328 146.304C110.725 146.574 111.244 146.709 111.883 146.709C112.579 146.709 113.135 146.564 113.552 146.275C113.969 145.982 114.177 145.624 114.177 145.203C114.177 144.862 114.049 144.575 113.794 144.343C113.543 144.111 113.157 143.936 112.636 143.818L110.789 143.413C109.771 143.181 109.019 142.812 108.531 142.305C108.048 141.798 107.806 141.157 107.806 140.38C107.806 139.736 107.986 139.173 108.346 138.69C108.706 138.207 109.203 137.831 109.838 137.561C110.472 137.286 111.199 137.149 112.018 137.149C113.197 137.149 114.125 137.405 114.802 137.916C115.479 138.423 115.927 139.102 116.144 139.954ZM126.367 139.954L124.442 140.295C124.362 140.049 124.234 139.815 124.059 139.592C123.888 139.37 123.656 139.187 123.363 139.045C123.069 138.903 122.702 138.832 122.262 138.832C121.661 138.832 121.159 138.967 120.756 139.237C120.354 139.502 120.153 139.845 120.153 140.267C120.153 140.631 120.288 140.925 120.557 141.147C120.827 141.37 121.263 141.552 121.864 141.694L123.597 142.092C124.601 142.324 125.349 142.682 125.842 143.164C126.334 143.647 126.58 144.275 126.58 145.047C126.58 145.7 126.391 146.282 126.012 146.794C125.638 147.3 125.115 147.698 124.442 147.987C123.775 148.276 123.001 148.42 122.12 148.42C120.898 148.42 119.902 148.16 119.13 147.639C118.358 147.113 117.885 146.368 117.709 145.402L119.762 145.089C119.89 145.624 120.153 146.029 120.55 146.304C120.948 146.574 121.467 146.709 122.106 146.709C122.802 146.709 123.358 146.564 123.775 146.275C124.191 145.982 124.4 145.624 124.4 145.203C124.4 144.862 124.272 144.575 124.016 144.343C123.765 144.111 123.379 143.936 122.859 143.818L121.012 143.413C119.994 143.181 119.241 142.812 118.753 142.305C118.271 141.798 118.029 141.157 118.029 140.38C118.029 139.736 118.209 139.173 118.569 138.69C118.929 138.207 119.426 137.831 120.06 137.561C120.695 137.286 121.422 137.149 122.241 137.149C123.42 137.149 124.348 137.405 125.025 137.916C125.702 138.423 126.149 139.102 126.367 139.954Z" fill="#F4F4F5"/>
</svg>
