<svg width="164" height="154" viewBox="0 0 164 154" fill="none" xmlns="http://www.w3.org/2000/svg">
<path d="M18 1C18 0.447715 18.4477 0 19 0H145C145.552 0 146 0.447715 146 1C146 1.55228 145.552 2 145 2H19C18.4477 2 18 1.55228 18 1Z" fill="#27272A"/>
<mask id="path-2-inside-1_23_78" fill="white">
<path d="M0 42C0 37.5817 3.58172 34 8 34H24C28.4183 34 32 37.5817 32 42V58C32 62.4183 28.4183 66 24 66H8C3.58172 66 0 62.4183 0 58V42Z"/>
</mask>
<path d="M8 34V34.8H24V34V33.2H8V34ZM32 42H31.2V58H32H32.8V42H32ZM24 66V65.2H8V66V66.8H24V66ZM0 58H0.8V42H0H-0.8V58H0ZM8 66V65.2C4.02355 65.2 0.8 61.9764 0.8 58H0H-0.8C-0.8 62.8601 3.13989 66.8 8 66.8V66ZM32 58H31.2C31.2 61.9764 27.9764 65.2 24 65.2V66V66.8C28.8601 66.8 32.8 62.8601 32.8 58H32ZM24 34V34.8C27.9764 34.8 31.2 38.0236 31.2 42H32H32.8C32.8 37.1399 28.8601 33.2 24 33.2V34ZM8 34V33.2C3.13989 33.2 -0.8 37.1399 -0.8 42H0H0.8C0.8 38.0236 4.02355 34.8 8 34.8V34Z" fill="#27272A" mask="url(#path-2-inside-1_23_78)"/>
<path d="M20.0833 48.25V46.5C20.0833 46.1906 19.9604 45.8938 19.7416 45.675C19.5228 45.4563 19.2261 45.3333 18.9167 45.3333H13.0833C12.7739 45.3333 12.4772 45.4563 12.2584 45.675C12.0396 45.8938 11.9167 46.1906 11.9167 46.5V48.25" stroke="#71717B" stroke-width="0.875" stroke-linecap="round" stroke-linejoin="round"/>
<path d="M10.75 52.3333C10.75 52.6428 10.8729 52.9395 11.0917 53.1583C11.3105 53.3771 11.6072 53.5 11.9167 53.5H20.0833C20.3928 53.5 20.6895 53.3771 20.9083 53.1583C21.1271 52.9395 21.25 52.6428 21.25 52.3333V49.4167C21.25 49.1072 21.1271 48.8105 20.9083 48.5917C20.6895 48.3729 20.3928 48.25 20.0833 48.25C19.7739 48.25 19.4772 48.3729 19.2584 48.5917C19.0396 48.8105 18.9167 49.1072 18.9167 49.4167V50.2917C18.9167 50.369 18.8859 50.4432 18.8312 50.4979C18.7765 50.5526 18.7024 50.5833 18.625 50.5833H13.375C13.2976 50.5833 13.2235 50.5526 13.1688 50.4979C13.1141 50.4432 13.0833 50.369 13.0833 50.2917V49.4167C13.0833 49.1072 12.9604 48.8105 12.7416 48.5917C12.5228 48.3729 12.2261 48.25 11.9167 48.25C11.6072 48.25 11.3105 48.3729 11.0917 48.5917C10.8729 48.8105 10.75 49.1072 10.75 49.4167V52.3333Z" stroke="#71717B" stroke-width="0.875" stroke-linecap="round" stroke-linejoin="round"/>
<path d="M11.9167 53.5V54.6667" stroke="#71717B" stroke-width="0.875" stroke-linecap="round" stroke-linejoin="round"/>
<path d="M20.0833 53.5V54.6667" stroke="#71717B" stroke-width="0.875" stroke-linecap="round" stroke-linejoin="round"/>
<mask id="path-8-inside-2_23_78" fill="white">
<path d="M44 42C44 37.5817 47.5818 34 52 34H68C72.4183 34 76 37.5817 76 42V58C76 62.4183 72.4183 66 68 66H52C47.5818 66 44 62.4183 44 58V42Z"/>
</mask>
<path d="M44 42C44 37.5817 47.5818 34 52 34H68C72.4183 34 76 37.5817 76 42V58C76 62.4183 72.4183 66 68 66H52C47.5818 66 44 62.4183 44 58V42Z" fill="#18181B"/>
<path d="M52 34V34.8H68V34V33.2H52V34ZM76 42H75.2V58H76H76.8V42H76ZM68 66V65.2H52V66V66.8H68V66ZM44 58H44.8V42H44H43.2V58H44ZM52 66V65.2C48.0236 65.2 44.8 61.9764 44.8 58H44H43.2C43.2 62.8601 47.1399 66.8 52 66.8V66ZM76 58H75.2C75.2 61.9764 71.9765 65.2 68 65.2V66V66.8C72.8601 66.8 76.8 62.8601 76.8 58H76ZM68 34V34.8C71.9765 34.8 75.2 38.0236 75.2 42H76H76.8C76.8 37.1399 72.8601 33.2 68 33.2V34ZM52 34V33.2C47.1399 33.2 43.2 37.1399 43.2 42H44H44.8C44.8 38.0236 48.0236 34.8 52 34.8V34Z" fill="#27272A" mask="url(#path-8-inside-2_23_78)"/>
<path d="M64.0834 48.25V46.5C64.0834 46.1906 63.9604 45.8938 63.7416 45.675C63.5229 45.4563 63.2261 45.3333 62.9167 45.3333H57.0834C56.7739 45.3333 56.4772 45.4563 56.2584 45.675C56.0396 45.8938 55.9167 46.1906 55.9167 46.5V48.25" stroke="#27272A" stroke-width="0.875" stroke-linecap="round" stroke-linejoin="round"/>
<path d="M54.75 52.3333C54.75 52.6428 54.8729 52.9395 55.0917 53.1583C55.3105 53.3771 55.6073 53.5 55.9167 53.5H64.0834C64.3928 53.5 64.6895 53.3771 64.9083 53.1583C65.1271 52.9395 65.25 52.6428 65.25 52.3333V49.4167C65.25 49.1072 65.1271 48.8105 64.9083 48.5917C64.6895 48.3729 64.3928 48.25 64.0834 48.25C63.7739 48.25 63.4772 48.3729 63.2584 48.5917C63.0396 48.8105 62.9167 49.1072 62.9167 49.4167V50.2917C62.9167 50.369 62.886 50.4432 62.8313 50.4979C62.7766 50.5526 62.7024 50.5833 62.625 50.5833H57.375C57.2977 50.5833 57.2235 50.5526 57.1688 50.4979C57.1141 50.4432 57.0834 50.369 57.0834 50.2917V49.4167C57.0834 49.1072 56.9604 48.8105 56.7417 48.5917C56.5229 48.3729 56.2261 48.25 55.9167 48.25C55.6073 48.25 55.3105 48.3729 55.0917 48.5917C54.8729 48.8105 54.75 49.1072 54.75 49.4167V52.3333Z" stroke="#27272A" stroke-width="0.875" stroke-linecap="round" stroke-linejoin="round"/>
<path d="M55.9167 53.5V54.6667" stroke="#27272A" stroke-width="0.875" stroke-linecap="round" stroke-linejoin="round"/>
<path d="M64.0834 53.5V54.6667" stroke="#27272A" stroke-width="0.875" stroke-linecap="round" stroke-linejoin="round"/>
<mask id="path-14-inside-3_23_78" fill="white">
<path d="M88 42C88 37.5817 91.5818 34 96 34H112C116.418 34 120 37.5817 120 42V58C120 62.4183 116.418 66 112 66H96C91.5818 66 88 62.4183 88 58V42Z"/>
</mask>
<path d="M96 34V34.8H112V34V33.2H96V34ZM120 42H119.2V58H120H120.8V42H120ZM112 66V65.2H96V66V66.8H112V66ZM88 58H88.8V42H88H87.2V58H88ZM96 66V65.2C92.0236 65.2 88.8 61.9764 88.8 58H88H87.2C87.2 62.8601 91.1399 66.8 96 66.8V66ZM120 58H119.2C119.2 61.9764 115.976 65.2 112 65.2V66V66.8C116.86 66.8 120.8 62.8601 120.8 58H120ZM112 34V34.8C115.976 34.8 119.2 38.0236 119.2 42H120H120.8C120.8 37.1399 116.86 33.2 112 33.2V34ZM96 34V33.2C91.1399 33.2 87.2 37.1399 87.2 42H88H88.8C88.8 38.0236 92.0236 34.8 96 34.8V34Z" fill="#27272A" mask="url(#path-14-inside-3_23_78)"/>
<path d="M108.083 48.25V46.5C108.083 46.1906 107.96 45.8938 107.742 45.675C107.523 45.4563 107.226 45.3333 106.917 45.3333H101.083C100.774 45.3333 100.477 45.4563 100.258 45.675C100.04 45.8938 99.9167 46.1906 99.9167 46.5V48.25" stroke="#71717B" stroke-width="0.875" stroke-linecap="round" stroke-linejoin="round"/>
<path d="M98.75 52.3333C98.75 52.6428 98.8729 52.9395 99.0917 53.1583C99.3105 53.3771 99.6073 53.5 99.9167 53.5H108.083C108.393 53.5 108.69 53.3771 108.908 53.1583C109.127 52.9395 109.25 52.6428 109.25 52.3333V49.4167C109.25 49.1072 109.127 48.8105 108.908 48.5917C108.69 48.3729 108.393 48.25 108.083 48.25C107.774 48.25 107.477 48.3729 107.258 48.5917C107.04 48.8105 106.917 49.1072 106.917 49.4167V50.2917C106.917 50.369 106.886 50.4432 106.831 50.4979C106.777 50.5526 106.702 50.5833 106.625 50.5833H101.375C101.298 50.5833 101.223 50.5526 101.169 50.4979C101.114 50.4432 101.083 50.369 101.083 50.2917V49.4167C101.083 49.1072 100.96 48.8105 100.742 48.5917C100.523 48.3729 100.226 48.25 99.9167 48.25C99.6073 48.25 99.3105 48.3729 99.0917 48.5917C98.8729 48.8105 98.75 49.1072 98.75 49.4167V52.3333Z" stroke="#71717B" stroke-width="0.875" stroke-linecap="round" stroke-linejoin="round"/>
<path d="M99.9167 53.5V54.6667" stroke="#71717B" stroke-width="0.875" stroke-linecap="round" stroke-linejoin="round"/>
<path d="M108.083 53.5V54.6667" stroke="#71717B" stroke-width="0.875" stroke-linecap="round" stroke-linejoin="round"/>
<mask id="path-20-inside-4_23_78" fill="white">
<path d="M132 42C132 37.5817 135.582 34 140 34H156C160.418 34 164 37.5817 164 42V58C164 62.4183 160.418 66 156 66H140C135.582 66 132 62.4183 132 58V42Z"/>
</mask>
<path d="M140 34V34.8H156V34V33.2H140V34ZM164 42H163.2V58H164H164.8V42H164ZM156 66V65.2H140V66V66.8H156V66ZM132 58H132.8V42H132H131.2V58H132ZM140 66V65.2C136.024 65.2 132.8 61.9764 132.8 58H132H131.2C131.2 62.8601 135.14 66.8 140 66.8V66ZM164 58H163.2C163.2 61.9764 159.976 65.2 156 65.2V66V66.8C160.86 66.8 164.8 62.8601 164.8 58H164ZM156 34V34.8C159.976 34.8 163.2 38.0236 163.2 42H164H164.8C164.8 37.1399 160.86 33.2 156 33.2V34ZM140 34V33.2C135.14 33.2 131.2 37.1399 131.2 42H132H132.8C132.8 38.0236 136.024 34.8 140 34.8V34Z" fill="#27272A" mask="url(#path-20-inside-4_23_78)"/>
<path d="M152.083 48.25V46.5C152.083 46.1906 151.96 45.8938 151.742 45.675C151.523 45.4563 151.226 45.3333 150.917 45.3333H145.083C144.774 45.3333 144.477 45.4563 144.258 45.675C144.04 45.8938 143.917 46.1906 143.917 46.5V48.25" stroke="#71717B" stroke-width="0.875" stroke-linecap="round" stroke-linejoin="round"/>
<path d="M142.75 52.3333C142.75 52.6428 142.873 52.9395 143.092 53.1583C143.311 53.3771 143.607 53.5 143.917 53.5H152.083C152.393 53.5 152.69 53.3771 152.908 53.1583C153.127 52.9395 153.25 52.6428 153.25 52.3333V49.4167C153.25 49.1072 153.127 48.8105 152.908 48.5917C152.69 48.3729 152.393 48.25 152.083 48.25C151.774 48.25 151.477 48.3729 151.258 48.5917C151.04 48.8105 150.917 49.1072 150.917 49.4167V50.2917C150.917 50.369 150.886 50.4432 150.831 50.4979C150.777 50.5526 150.702 50.5833 150.625 50.5833H145.375C145.298 50.5833 145.223 50.5526 145.169 50.4979C145.114 50.4432 145.083 50.369 145.083 50.2917V49.4167C145.083 49.1072 144.96 48.8105 144.742 48.5917C144.523 48.3729 144.226 48.25 143.917 48.25C143.607 48.25 143.311 48.3729 143.092 48.5917C142.873 48.8105 142.75 49.1072 142.75 49.4167V52.3333Z" stroke="#71717B" stroke-width="0.875" stroke-linecap="round" stroke-linejoin="round"/>
<path d="M143.917 53.5V54.6667" stroke="#71717B" stroke-width="0.875" stroke-linecap="round" stroke-linejoin="round"/>
<path d="M152.083 53.5V54.6667" stroke="#71717B" stroke-width="0.875" stroke-linecap="round" stroke-linejoin="round"/>
<mask id="path-26-inside-5_23_78" fill="white">
<path d="M0 86C0 81.5817 3.58172 78 8 78H24C28.4183 78 32 81.5817 32 86V102C32 106.418 28.4183 110 24 110H8C3.58172 110 0 106.418 0 102V86Z"/>
</mask>
<path d="M8 78V78.8H24V78V77.2H8V78ZM32 86H31.2V102H32H32.8V86H32ZM24 110V109.2H8V110V110.8H24V110ZM0 102H0.8V86H0H-0.8V102H0ZM8 110V109.2C4.02355 109.2 0.8 105.976 0.8 102H0H-0.8C-0.8 106.86 3.13989 110.8 8 110.8V110ZM32 102H31.2C31.2 105.976 27.9764 109.2 24 109.2V110V110.8C28.8601 110.8 32.8 106.86 32.8 102H32ZM24 78V78.8C27.9764 78.8 31.2 82.0236 31.2 86H32H32.8C32.8 81.1399 28.8601 77.2 24 77.2V78ZM8 78V77.2C3.13989 77.2 -0.8 81.1399 -0.8 86H0H0.8C0.8 82.0236 4.02355 78.8 8 78.8V78Z" fill="#27272A" mask="url(#path-26-inside-5_23_78)"/>
<path d="M20.0833 92.25V90.5C20.0833 90.1906 19.9604 89.8938 19.7416 89.675C19.5228 89.4562 19.2261 89.3333 18.9167 89.3333H13.0833C12.7739 89.3333 12.4772 89.4562 12.2584 89.675C12.0396 89.8938 11.9167 90.1906 11.9167 90.5V92.25" stroke="#71717B" stroke-width="0.875" stroke-linecap="round" stroke-linejoin="round"/>
<path d="M10.75 96.3333C10.75 96.6428 10.8729 96.9395 11.0917 97.1583C11.3105 97.3771 11.6072 97.5 11.9167 97.5H20.0833C20.3928 97.5 20.6895 97.3771 20.9083 97.1583C21.1271 96.9395 21.25 96.6428 21.25 96.3333V93.4167C21.25 93.1072 21.1271 92.8105 20.9083 92.5917C20.6895 92.3729 20.3928 92.25 20.0833 92.25C19.7739 92.25 19.4772 92.3729 19.2584 92.5917C19.0396 92.8105 18.9167 93.1072 18.9167 93.4167V94.2917C18.9167 94.369 18.8859 94.4432 18.8312 94.4979C18.7765 94.5526 18.7024 94.5833 18.625 94.5833H13.375C13.2976 94.5833 13.2235 94.5526 13.1688 94.4979C13.1141 94.4432 13.0833 94.369 13.0833 94.2917V93.4167C13.0833 93.1072 12.9604 92.8105 12.7416 92.5917C12.5228 92.3729 12.2261 92.25 11.9167 92.25C11.6072 92.25 11.3105 92.3729 11.0917 92.5917C10.8729 92.8105 10.75 93.1072 10.75 93.4167V96.3333Z" stroke="#71717B" stroke-width="0.875" stroke-linecap="round" stroke-linejoin="round"/>
<path d="M11.9167 97.5V98.6667" stroke="#71717B" stroke-width="0.875" stroke-linecap="round" stroke-linejoin="round"/>
<path d="M20.0833 97.5V98.6667" stroke="#71717B" stroke-width="0.875" stroke-linecap="round" stroke-linejoin="round"/>
<mask id="path-32-inside-6_23_78" fill="white">
<path d="M44 86C44 81.5817 47.5818 78 52 78H68C72.4183 78 76 81.5817 76 86V102C76 106.418 72.4183 110 68 110H52C47.5818 110 44 106.418 44 102V86Z"/>
</mask>
<path d="M44 86C44 81.5817 47.5818 78 52 78H68C72.4183 78 76 81.5817 76 86V102C76 106.418 72.4183 110 68 110H52C47.5818 110 44 106.418 44 102V86Z" fill="#FF6900" fill-opacity="0.1"/>
<path d="M52 78V78.8H68V78V77.2H52V78ZM76 86H75.2V102H76H76.8V86H76ZM68 110V109.2H52V110V110.8H68V110ZM44 102H44.8V86H44H43.2V102H44ZM52 110V109.2C48.0236 109.2 44.8 105.976 44.8 102H44H43.2C43.2 106.86 47.1399 110.8 52 110.8V110ZM76 102H75.2C75.2 105.976 71.9765 109.2 68 109.2V110V110.8C72.8601 110.8 76.8 106.86 76.8 102H76ZM68 78V78.8C71.9765 78.8 75.2 82.0236 75.2 86H76H76.8C76.8 81.1399 72.8601 77.2 68 77.2V78ZM52 78V77.2C47.1399 77.2 43.2 81.1399 43.2 86H44H44.8C44.8 82.0236 48.0236 78.8 52 78.8V78Z" fill="#FF6900" mask="url(#path-32-inside-6_23_78)"/>
<path d="M64.0834 92.25V90.5C64.0834 90.1906 63.9604 89.8938 63.7416 89.675C63.5229 89.4562 63.2261 89.3333 62.9167 89.3333H57.0834C56.7739 89.3333 56.4772 89.4562 56.2584 89.675C56.0396 89.8938 55.9167 90.1906 55.9167 90.5V92.25" stroke="#FF6900" stroke-width="1.16667" stroke-linecap="round" stroke-linejoin="round"/>
<path d="M54.75 96.3333C54.75 96.6428 54.8729 96.9395 55.0917 97.1583C55.3105 97.3771 55.6073 97.5 55.9167 97.5H64.0834C64.3928 97.5 64.6895 97.3771 64.9083 97.1583C65.1271 96.9395 65.25 96.6428 65.25 96.3333V93.4167C65.25 93.1072 65.1271 92.8105 64.9083 92.5917C64.6895 92.3729 64.3928 92.25 64.0834 92.25C63.7739 92.25 63.4772 92.3729 63.2584 92.5917C63.0396 92.8105 62.9167 93.1072 62.9167 93.4167V94.2917C62.9167 94.369 62.886 94.4432 62.8313 94.4979C62.7766 94.5526 62.7024 94.5833 62.625 94.5833H57.375C57.2977 94.5833 57.2235 94.5526 57.1688 94.4979C57.1141 94.4432 57.0834 94.369 57.0834 94.2917V93.4167C57.0834 93.1072 56.9604 92.8105 56.7417 92.5917C56.5229 92.3729 56.2261 92.25 55.9167 92.25C55.6073 92.25 55.3105 92.3729 55.0917 92.5917C54.8729 92.8105 54.75 93.1072 54.75 93.4167V96.3333Z" stroke="#FF6900" stroke-width="1.16667" stroke-linecap="round" stroke-linejoin="round"/>
<path d="M55.9167 97.5V98.6667" stroke="#FF6900" stroke-width="1.16667" stroke-linecap="round" stroke-linejoin="round"/>
<path d="M64.0834 97.5V98.6667" stroke="#FF6900" stroke-width="1.16667" stroke-linecap="round" stroke-linejoin="round"/>
<mask id="path-38-inside-7_23_78" fill="white">
<path d="M88 86C88 81.5817 91.5818 78 96 78H112C116.418 78 120 81.5817 120 86V102C120 106.418 116.418 110 112 110H96C91.5818 110 88 106.418 88 102V86Z"/>
</mask>
<path d="M88 86C88 81.5817 91.5818 78 96 78H112C116.418 78 120 81.5817 120 86V102C120 106.418 116.418 110 112 110H96C91.5818 110 88 106.418 88 102V86Z" fill="#FF6900" fill-opacity="0.1"/>
<path d="M96 78V78.8H112V78V77.2H96V78ZM120 86H119.2V102H120H120.8V86H120ZM112 110V109.2H96V110V110.8H112V110ZM88 102H88.8V86H88H87.2V102H88ZM96 110V109.2C92.0236 109.2 88.8 105.976 88.8 102H88H87.2C87.2 106.86 91.1399 110.8 96 110.8V110ZM120 102H119.2C119.2 105.976 115.976 109.2 112 109.2V110V110.8C116.86 110.8 120.8 106.86 120.8 102H120ZM112 78V78.8C115.976 78.8 119.2 82.0236 119.2 86H120H120.8C120.8 81.1399 116.86 77.2 112 77.2V78ZM96 78V77.2C91.1399 77.2 87.2 81.1399 87.2 86H88H88.8C88.8 82.0236 92.0236 78.8 96 78.8V78Z" fill="#FF6900" mask="url(#path-38-inside-7_23_78)"/>
<path d="M108.083 92.25V90.5C108.083 90.1906 107.96 89.8938 107.742 89.675C107.523 89.4562 107.226 89.3333 106.917 89.3333H101.083C100.774 89.3333 100.477 89.4562 100.258 89.675C100.04 89.8938 99.9167 90.1906 99.9167 90.5V92.25" stroke="#FF6900" stroke-width="1.16667" stroke-linecap="round" stroke-linejoin="round"/>
<path d="M98.75 96.3333C98.75 96.6428 98.8729 96.9395 99.0917 97.1583C99.3105 97.3771 99.6073 97.5 99.9167 97.5H108.083C108.393 97.5 108.69 97.3771 108.908 97.1583C109.127 96.9395 109.25 96.6428 109.25 96.3333V93.4167C109.25 93.1072 109.127 92.8105 108.908 92.5917C108.69 92.3729 108.393 92.25 108.083 92.25C107.774 92.25 107.477 92.3729 107.258 92.5917C107.04 92.8105 106.917 93.1072 106.917 93.4167V94.2917C106.917 94.369 106.886 94.4432 106.831 94.4979C106.777 94.5526 106.702 94.5833 106.625 94.5833H101.375C101.298 94.5833 101.223 94.5526 101.169 94.4979C101.114 94.4432 101.083 94.369 101.083 94.2917V93.4167C101.083 93.1072 100.96 92.8105 100.742 92.5917C100.523 92.3729 100.226 92.25 99.9167 92.25C99.6073 92.25 99.3105 92.3729 99.0917 92.5917C98.8729 92.8105 98.75 93.1072 98.75 93.4167V96.3333Z" stroke="#FF6900" stroke-width="1.16667" stroke-linecap="round" stroke-linejoin="round"/>
<path d="M99.9167 97.5V98.6667" stroke="#FF6900" stroke-width="1.16667" stroke-linecap="round" stroke-linejoin="round"/>
<path d="M108.083 97.5V98.6667" stroke="#FF6900" stroke-width="1.16667" stroke-linecap="round" stroke-linejoin="round"/>
<mask id="path-44-inside-8_23_78" fill="white">
<path d="M132 86C132 81.5817 135.582 78 140 78H156C160.418 78 164 81.5817 164 86V102C164 106.418 160.418 110 156 110H140C135.582 110 132 106.418 132 102V86Z"/>
</mask>
<path d="M140 78V78.8H156V78V77.2H140V78ZM164 86H163.2V102H164H164.8V86H164ZM156 110V109.2H140V110V110.8H156V110ZM132 102H132.8V86H132H131.2V102H132ZM140 110V109.2C136.024 109.2 132.8 105.976 132.8 102H132H131.2C131.2 106.86 135.14 110.8 140 110.8V110ZM164 102H163.2C163.2 105.976 159.976 109.2 156 109.2V110V110.8C160.86 110.8 164.8 106.86 164.8 102H164ZM156 78V78.8C159.976 78.8 163.2 82.0236 163.2 86H164H164.8C164.8 81.1399 160.86 77.2 156 77.2V78ZM140 78V77.2C135.14 77.2 131.2 81.1399 131.2 86H132H132.8C132.8 82.0236 136.024 78.8 140 78.8V78Z" fill="#27272A" mask="url(#path-44-inside-8_23_78)"/>
<path d="M152.083 92.25V90.5C152.083 90.1906 151.96 89.8938 151.742 89.675C151.523 89.4562 151.226 89.3333 150.917 89.3333H145.083C144.774 89.3333 144.477 89.4562 144.258 89.675C144.04 89.8938 143.917 90.1906 143.917 90.5V92.25" stroke="#71717B" stroke-width="0.875" stroke-linecap="round" stroke-linejoin="round"/>
<path d="M142.75 96.3333C142.75 96.6428 142.873 96.9395 143.092 97.1583C143.311 97.3771 143.607 97.5 143.917 97.5H152.083C152.393 97.5 152.69 97.3771 152.908 97.1583C153.127 96.9395 153.25 96.6428 153.25 96.3333V93.4167C153.25 93.1072 153.127 92.8105 152.908 92.5917C152.69 92.3729 152.393 92.25 152.083 92.25C151.774 92.25 151.477 92.3729 151.258 92.5917C151.04 92.8105 150.917 93.1072 150.917 93.4167V94.2917C150.917 94.369 150.886 94.4432 150.831 94.4979C150.777 94.5526 150.702 94.5833 150.625 94.5833H145.375C145.298 94.5833 145.223 94.5526 145.169 94.4979C145.114 94.4432 145.083 94.369 145.083 94.2917V93.4167C145.083 93.1072 144.96 92.8105 144.742 92.5917C144.523 92.3729 144.226 92.25 143.917 92.25C143.607 92.25 143.311 92.3729 143.092 92.5917C142.873 92.8105 142.75 93.1072 142.75 93.4167V96.3333Z" stroke="#71717B" stroke-width="0.875" stroke-linecap="round" stroke-linejoin="round"/>
<path d="M143.917 97.5V98.6667" stroke="#71717B" stroke-width="0.875" stroke-linecap="round" stroke-linejoin="round"/>
<path d="M152.083 97.5V98.6667" stroke="#71717B" stroke-width="0.875" stroke-linecap="round" stroke-linejoin="round"/>
<mask id="path-50-inside-9_23_78" fill="white">
<path d="M0 130C0 125.582 3.58172 122 8 122H24C28.4183 122 32 125.582 32 130V146C32 150.418 28.4183 154 24 154H8C3.58172 154 0 150.418 0 146V130Z"/>
</mask>
<path d="M8 122V122.8H24V122V121.2H8V122ZM32 130H31.2V146H32H32.8V130H32ZM24 154V153.2H8V154V154.8H24V154ZM0 146H0.8V130H0H-0.8V146H0ZM8 154V153.2C4.02355 153.2 0.8 149.976 0.8 146H0H-0.8C-0.8 150.86 3.13989 154.8 8 154.8V154ZM32 146H31.2C31.2 149.976 27.9764 153.2 24 153.2V154V154.8C28.8601 154.8 32.8 150.86 32.8 146H32ZM24 122V122.8C27.9764 122.8 31.2 126.024 31.2 130H32H32.8C32.8 125.14 28.8601 121.2 24 121.2V122ZM8 122V121.2C3.13989 121.2 -0.8 125.14 -0.8 130H0H0.8C0.8 126.024 4.02355 122.8 8 122.8V122Z" fill="#27272A" mask="url(#path-50-inside-9_23_78)"/>
<path d="M20.0833 136.25V134.5C20.0833 134.191 19.9604 133.894 19.7416 133.675C19.5228 133.456 19.2261 133.333 18.9167 133.333H13.0833C12.7739 133.333 12.4772 133.456 12.2584 133.675C12.0396 133.894 11.9167 134.191 11.9167 134.5V136.25" stroke="#71717B" stroke-width="0.875" stroke-linecap="round" stroke-linejoin="round"/>
<path d="M10.75 140.333C10.75 140.643 10.8729 140.94 11.0917 141.158C11.3105 141.377 11.6072 141.5 11.9167 141.5H20.0833C20.3928 141.5 20.6895 141.377 20.9083 141.158C21.1271 140.94 21.25 140.643 21.25 140.333V137.417C21.25 137.107 21.1271 136.811 20.9083 136.592C20.6895 136.373 20.3928 136.25 20.0833 136.25C19.7739 136.25 19.4772 136.373 19.2584 136.592C19.0396 136.811 18.9167 137.107 18.9167 137.417V138.292C18.9167 138.369 18.8859 138.443 18.8312 138.498C18.7765 138.553 18.7024 138.583 18.625 138.583H13.375C13.2976 138.583 13.2235 138.553 13.1688 138.498C13.1141 138.443 13.0833 138.369 13.0833 138.292V137.417C13.0833 137.107 12.9604 136.811 12.7416 136.592C12.5228 136.373 12.2261 136.25 11.9167 136.25C11.6072 136.25 11.3105 136.373 11.0917 136.592C10.8729 136.811 10.75 137.107 10.75 137.417V140.333Z" stroke="#71717B" stroke-width="0.875" stroke-linecap="round" stroke-linejoin="round"/>
<path d="M11.9167 141.5V142.667" stroke="#71717B" stroke-width="0.875" stroke-linecap="round" stroke-linejoin="round"/>
<path d="M20.0833 141.5V142.667" stroke="#71717B" stroke-width="0.875" stroke-linecap="round" stroke-linejoin="round"/>
<mask id="path-56-inside-10_23_78" fill="white">
<path d="M44 130C44 125.582 47.5818 122 52 122H68C72.4183 122 76 125.582 76 130V146C76 150.418 72.4183 154 68 154H52C47.5818 154 44 150.418 44 146V130Z"/>
</mask>
<path d="M52 122V122.8H68V122V121.2H52V122ZM76 130H75.2V146H76H76.8V130H76ZM68 154V153.2H52V154V154.8H68V154ZM44 146H44.8V130H44H43.2V146H44ZM52 154V153.2C48.0236 153.2 44.8 149.976 44.8 146H44H43.2C43.2 150.86 47.1399 154.8 52 154.8V154ZM76 146H75.2C75.2 149.976 71.9765 153.2 68 153.2V154V154.8C72.8601 154.8 76.8 150.86 76.8 146H76ZM68 122V122.8C71.9765 122.8 75.2 126.024 75.2 130H76H76.8C76.8 125.14 72.8601 121.2 68 121.2V122ZM52 122V121.2C47.1399 121.2 43.2 125.14 43.2 130H44H44.8C44.8 126.024 48.0236 122.8 52 122.8V122Z" fill="#27272A" mask="url(#path-56-inside-10_23_78)"/>
<path d="M64.0834 136.25V134.5C64.0834 134.191 63.9604 133.894 63.7416 133.675C63.5229 133.456 63.2261 133.333 62.9167 133.333H57.0834C56.7739 133.333 56.4772 133.456 56.2584 133.675C56.0396 133.894 55.9167 134.191 55.9167 134.5V136.25" stroke="#71717B" stroke-width="0.875" stroke-linecap="round" stroke-linejoin="round"/>
<path d="M54.75 140.333C54.75 140.643 54.8729 140.94 55.0917 141.158C55.3105 141.377 55.6073 141.5 55.9167 141.5H64.0834C64.3928 141.5 64.6895 141.377 64.9083 141.158C65.1271 140.94 65.25 140.643 65.25 140.333V137.417C65.25 137.107 65.1271 136.811 64.9083 136.592C64.6895 136.373 64.3928 136.25 64.0834 136.25C63.7739 136.25 63.4772 136.373 63.2584 136.592C63.0396 136.811 62.9167 137.107 62.9167 137.417V138.292C62.9167 138.369 62.886 138.443 62.8313 138.498C62.7766 138.553 62.7024 138.583 62.625 138.583H57.375C57.2977 138.583 57.2235 138.553 57.1688 138.498C57.1141 138.443 57.0834 138.369 57.0834 138.292V137.417C57.0834 137.107 56.9604 136.811 56.7417 136.592C56.5229 136.373 56.2261 136.25 55.9167 136.25C55.6073 136.25 55.3105 136.373 55.0917 136.592C54.8729 136.811 54.75 137.107 54.75 137.417V140.333Z" stroke="#71717B" stroke-width="0.875" stroke-linecap="round" stroke-linejoin="round"/>
<path d="M55.9167 141.5V142.667" stroke="#71717B" stroke-width="0.875" stroke-linecap="round" stroke-linejoin="round"/>
<path d="M64.0834 141.5V142.667" stroke="#71717B" stroke-width="0.875" stroke-linecap="round" stroke-linejoin="round"/>
<mask id="path-62-inside-11_23_78" fill="white">
<path d="M88 130C88 125.582 91.5818 122 96 122H112C116.418 122 120 125.582 120 130V146C120 150.418 116.418 154 112 154H96C91.5818 154 88 150.418 88 146V130Z"/>
</mask>
<path d="M88 130C88 125.582 91.5818 122 96 122H112C116.418 122 120 125.582 120 130V146C120 150.418 116.418 154 112 154H96C91.5818 154 88 150.418 88 146V130Z" fill="#18181B"/>
<path d="M96 122V122.8H112V122V121.2H96V122ZM120 130H119.2V146H120H120.8V130H120ZM112 154V153.2H96V154V154.8H112V154ZM88 146H88.8V130H88H87.2V146H88ZM96 154V153.2C92.0236 153.2 88.8 149.976 88.8 146H88H87.2C87.2 150.86 91.1399 154.8 96 154.8V154ZM120 146H119.2C119.2 149.976 115.976 153.2 112 153.2V154V154.8C116.86 154.8 120.8 150.86 120.8 146H120ZM112 122V122.8C115.976 122.8 119.2 126.024 119.2 130H120H120.8C120.8 125.14 116.86 121.2 112 121.2V122ZM96 122V121.2C91.1399 121.2 87.2 125.14 87.2 130H88H88.8C88.8 126.024 92.0236 122.8 96 122.8V122Z" fill="#27272A" mask="url(#path-62-inside-11_23_78)"/>
<path d="M108.083 136.25V134.5C108.083 134.191 107.96 133.894 107.742 133.675C107.523 133.456 107.226 133.333 106.917 133.333H101.083C100.774 133.333 100.477 133.456 100.258 133.675C100.04 133.894 99.9167 134.191 99.9167 134.5V136.25" stroke="#27272A" stroke-width="0.875" stroke-linecap="round" stroke-linejoin="round"/>
<path d="M98.75 140.333C98.75 140.643 98.8729 140.94 99.0917 141.158C99.3105 141.377 99.6073 141.5 99.9167 141.5H108.083C108.393 141.5 108.69 141.377 108.908 141.158C109.127 140.94 109.25 140.643 109.25 140.333V137.417C109.25 137.107 109.127 136.811 108.908 136.592C108.69 136.373 108.393 136.25 108.083 136.25C107.774 136.25 107.477 136.373 107.258 136.592C107.04 136.811 106.917 137.107 106.917 137.417V138.292C106.917 138.369 106.886 138.443 106.831 138.498C106.777 138.553 106.702 138.583 106.625 138.583H101.375C101.298 138.583 101.223 138.553 101.169 138.498C101.114 138.443 101.083 138.369 101.083 138.292V137.417C101.083 137.107 100.96 136.811 100.742 136.592C100.523 136.373 100.226 136.25 99.9167 136.25C99.6073 136.25 99.3105 136.373 99.0917 136.592C98.8729 136.811 98.75 137.107 98.75 137.417V140.333Z" stroke="#27272A" stroke-width="0.875" stroke-linecap="round" stroke-linejoin="round"/>
<path d="M99.9167 141.5V142.667" stroke="#27272A" stroke-width="0.875" stroke-linecap="round" stroke-linejoin="round"/>
<path d="M108.083 141.5V142.667" stroke="#27272A" stroke-width="0.875" stroke-linecap="round" stroke-linejoin="round"/>
<mask id="path-68-inside-12_23_78" fill="white">
<path d="M132 130C132 125.582 135.582 122 140 122H156C160.418 122 164 125.582 164 130V146C164 150.418 160.418 154 156 154H140C135.582 154 132 150.418 132 146V130Z"/>
</mask>
<path d="M140 122V122.8H156V122V121.2H140V122ZM164 130H163.2V146H164H164.8V130H164ZM156 154V153.2H140V154V154.8H156V154ZM132 146H132.8V130H132H131.2V146H132ZM140 154V153.2C136.024 153.2 132.8 149.976 132.8 146H132H131.2C131.2 150.86 135.14 154.8 140 154.8V154ZM164 146H163.2C163.2 149.976 159.976 153.2 156 153.2V154V154.8C160.86 154.8 164.8 150.86 164.8 146H164ZM156 122V122.8C159.976 122.8 163.2 126.024 163.2 130H164H164.8C164.8 125.14 160.86 121.2 156 121.2V122ZM140 122V121.2C135.14 121.2 131.2 125.14 131.2 130H132H132.8C132.8 126.024 136.024 122.8 140 122.8V122Z" fill="#27272A" mask="url(#path-68-inside-12_23_78)"/>
<path d="M152.083 136.25V134.5C152.083 134.191 151.96 133.894 151.742 133.675C151.523 133.456 151.226 133.333 150.917 133.333H145.083C144.774 133.333 144.477 133.456 144.258 133.675C144.04 133.894 143.917 134.191 143.917 134.5V136.25" stroke="#71717B" stroke-width="0.875" stroke-linecap="round" stroke-linejoin="round"/>
<path d="M142.75 140.333C142.75 140.643 142.873 140.94 143.092 141.158C143.311 141.377 143.607 141.5 143.917 141.5H152.083C152.393 141.5 152.69 141.377 152.908 141.158C153.127 140.94 153.25 140.643 153.25 140.333V137.417C153.25 137.107 153.127 136.811 152.908 136.592C152.69 136.373 152.393 136.25 152.083 136.25C151.774 136.25 151.477 136.373 151.258 136.592C151.04 136.811 150.917 137.107 150.917 137.417V138.292C150.917 138.369 150.886 138.443 150.831 138.498C150.777 138.553 150.702 138.583 150.625 138.583H145.375C145.298 138.583 145.223 138.553 145.169 138.498C145.114 138.443 145.083 138.369 145.083 138.292V137.417C145.083 137.107 144.96 136.811 144.742 136.592C144.523 136.373 144.226 136.25 143.917 136.25C143.607 136.25 143.311 136.373 143.092 136.592C142.873 136.811 142.75 137.107 142.75 137.417V140.333Z" stroke="#71717B" stroke-width="0.875" stroke-linecap="round" stroke-linejoin="round"/>
<path d="M143.917 141.5V142.667" stroke="#71717B" stroke-width="0.875" stroke-linecap="round" stroke-linejoin="round"/>
<path d="M152.083 141.5V142.667" stroke="#71717B" stroke-width="0.875" stroke-linecap="round" stroke-linejoin="round"/>
</svg>
