<svg width="192" height="192" viewBox="0 0 192 192" fill="none" xmlns="http://www.w3.org/2000/svg">
<path d="M64 96C64 78.3269 78.3269 64 96 64C113.673 64 128 78.3269 128 96C128 113.673 113.673 128 96 128C78.3269 128 64 113.673 64 96Z" fill="#F4F4F5"/>
<path d="M92 87L106 96L92 105V87Z" fill="#09090B" stroke="#09090B" stroke-width="2" stroke-linecap="round" stroke-linejoin="round"/>
<mask id="path-3-inside-1_23_42" fill="white">
<path d="M0 96C0 42.9807 42.9807 0 96 0C149.019 0 192 42.9807 192 96C192 149.019 149.019 192 96 192C42.9807 192 0 149.019 0 96Z"/>
</mask>
<path d="M0 96M192 96M192 96M0 96M96 0M192 96M96 192M0 96M96 192V191.2C43.4225 191.2 0.8 148.577 0.8 96H0H-0.8C-0.8 149.461 42.5388 192.8 96 192.8V192ZM192 96H191.2C191.2 148.577 148.577 191.2 96 191.2V192V192.8C149.461 192.8 192.8 149.461 192.8 96H192ZM96 0V0.8C148.577 0.8 191.2 43.4225 191.2 96H192H192.8C192.8 42.5388 149.461 -0.8 96 -0.8V0ZM96 0V-0.8C42.5388 -0.8 -0.8 42.5388 -0.8 96H0H0.8C0.8 43.4225 43.4225 0.8 96 0.8V0Z" fill="#27272A" mask="url(#path-3-inside-1_23_42)"/>
<mask id="path-5-inside-2_23_42" fill="white">
<path d="M32 96C32 60.6538 60.6538 32 96 32C131.346 32 160 60.6538 160 96C160 131.346 131.346 160 96 160C60.6538 160 32 131.346 32 96Z"/>
</mask>
<path d="M32 96M160 96M160 96M32 96M96 32M160 96M96 160M32 96M96 160V159.2C61.0956 159.2 32.8 130.904 32.8 96H32H31.2C31.2 131.788 60.2119 160.8 96 160.8V160ZM160 96H159.2C159.2 130.904 130.904 159.2 96 159.2V160V160.8C131.788 160.8 160.8 131.788 160.8 96H160ZM96 32V32.8C130.904 32.8 159.2 61.0956 159.2 96H160H160.8C160.8 60.2119 131.788 31.2 96 31.2V32ZM96 32V31.2C60.2119 31.2 31.2 60.2119 31.2 96H32H32.8C32.8 61.0956 61.0956 32.8 96 32.8V32Z" fill="#3F3F47" fill-opacity="0.5" mask="url(#path-5-inside-2_23_42)"/>
</svg>
