<svg width="22" height="22" viewBox="0 0 22 22" fill="none" xmlns="http://www.w3.org/2000/svg">
<path d="M11.5509 19.9823C13.2559 18.5102 18.3334 13.7435 18.3334 9.16659C18.3334 7.22166 17.5607 5.3564 16.1855 3.98114C14.8102 2.60587 12.9449 1.83325 11 1.83325C9.0551 1.83325 7.18984 2.60587 5.81457 3.98114C4.4393 5.3564 3.66669 7.22166 3.66669 9.16659C3.66669 13.7435 8.7441 18.5102 10.4491 19.9823C10.6079 20.1018 10.8013 20.1664 11 20.1664C11.1988 20.1664 11.3921 20.1018 11.5509 19.9823Z" stroke="#71717B" stroke-width="1.375" stroke-linecap="round" stroke-linejoin="round"/>
<path d="M11 11.9167C12.5188 11.9167 13.75 10.6855 13.75 9.16675C13.75 7.64796 12.5188 6.41675 11 6.41675C9.48122 6.41675 8.25 7.64796 8.25 9.16675C8.25 10.6855 9.48122 11.9167 11 11.9167Z" stroke="#71717B" stroke-width="1.375" stroke-linecap="round" stroke-linejoin="round"/>
</svg>
